<?xml version="1.0" encoding="UTF-8" standalone="no"?>
<svg
   xmlns:dc="http://purl.org/dc/elements/1.1/"
   xmlns:cc="http://creativecommons.org/ns#"
   xmlns:rdf="http://www.w3.org/1999/02/22-rdf-syntax-ns#"
   xmlns:svg="http://www.w3.org/2000/svg"
   xmlns="http://www.w3.org/2000/svg"
   xmlns:sodipodi="http://sodipodi.sourceforge.net/DTD/sodipodi-0.dtd"
   xmlns:inkscape="http://www.inkscape.org/namespaces/inkscape"
   height="297mm"
   width="210mm"
   inkscape:version="1.0 (4035a4f, 2020-05-01)"
   sodipodi:docname="NEW-iconfinder_paper-clip-academic-note-exam_2824438.svg"
   version="1.1"
   viewBox="0 0 793.70079 1122.5197"
   id="Layer_2"
   data-name="Layer 2">
  <metadata
     id="metadata147">
    <rdf:RDF>
      <cc:Work
         rdf:about="">
        <dc:format>image/svg+xml</dc:format>
        <dc:type
           rdf:resource="http://purl.org/dc/dcmitype/StillImage" />
        <dc:title></dc:title>
      </cc:Work>
    </rdf:RDF>
  </metadata>
  <sodipodi:namedview
     units="mm"
     inkscape:snap-page="false"
     inkscape:snap-grids="true"
     inkscape:current-layer="Layer_2"
     inkscape:window-maximized="0"
     inkscape:window-y="23"
     inkscape:window-x="0"
     inkscape:cy="8.4085112"
     inkscape:cx="19.609903"
     inkscape:zoom="13.578125"
     showgrid="false"
     id="namedview145"
     inkscape:window-height="1033"
     inkscape:window-width="1270"
     inkscape:pageshadow="2"
     inkscape:pageopacity="0"
     guidetolerance="10"
     gridtolerance="10"
     objecttolerance="10"
     borderopacity="1"
     bordercolor="#666666"
     pagecolor="#ffffff" />
  <defs
     id="defs116">
    <style
       id="style114">.cls-1{fill:#45d4d9;}.cls-2{fill:#2d95b5;}.cls-3{fill:#ffe94f;}.cls-4{fill:#2c2a3d;}</style>
  </defs>
  <rect
     style="stroke-width:0.844136"
     id="rect120"
     y="3.1472957"
     x="13.608746"
     width="37.666286"
     ry="1.6647751"
     rx="1.7121037"
     height="48.278481"
     class="cls-1" />
  <path
     style="stroke-width:0.878533"
     id="path122"
     d="M 15.320474,3.1472957 H 49.55502 a 1.7117273,1.8036057 0 0 1 1.711726,1.8036057 v 0.9018028 h -37.658 V 4.9509014 a 1.7117273,1.8036057 0 0 1 1.711728,-1.8036057 z"
     class="cls-2" />
  <rect
     style="stroke-width:0.807943"
     id="rect124"
     y="-46.983467"
     x="7.147296"
     width="40"
     transform="rotate(90)"
     height="29.374722"
     class="cls-3" />
  <path
     style="stroke-width:0.848938"
     id="path126"
     d="M 49.57797,2.147296 H 14.9846 a 2.5945028,2.5 0 0 0 -2.594503,2.5 v 45 a 2.5945028,2.5 0 0 0 2.594503,2.5 h 34.59337 a 2.5945028,2.5 0 0 0 2.594503,-2.5 v -45 a 2.5945028,2.5 0 0 0 -2.594503,-2.5 z M 38.335125,3.813962 V 5.480629 H 26.227445 V 3.813962 Z m -12.10768,6.666667 h 12.10768 A 1.7296686,1.6666667 0 0 0 40.064794,8.813962 V 7.147296 h 6.918673 v 40 H 17.579103 v -40 h 6.918674 v 1.666666 a 1.7296686,1.6666667 0 0 0 1.729668,1.666667 z M 38.335125,8.813962 H 26.227445 V 7.147296 h 12.10768 z m 12.10768,40.833334 A 0.86483426,0.83333333 0 0 1 49.57797,50.480629 H 14.9846 a 0.86483426,0.83333333 0 0 1 -0.864834,-0.833333 v -45 A 0.86483426,0.83333333 0 0 1 14.9846,3.813962 h 9.513177 v 1.666667 h -7.783508 a 0.86483426,0.83333333 0 0 0 -0.864835,0.833333 v 41.666667 a 0.86483426,0.83333333 0 0 0 0.864835,0.833334 h 31.134034 a 0.86483426,0.83333333 0 0 0 0.864833,-0.833334 V 6.313962 A 0.86483426,0.83333333 0 0 0 47.848303,5.480629 H 40.064794 V 3.813962 h 9.513176 a 0.86483426,0.83333333 0 0 1 0.864835,0.833334 z"
     class="cls-4" />
  <path
     id="path128"
     d="m 22.323648,16.495973 h -1 a 1,1 0 0 0 0,2 h 1 a 1,1 0 0 0 0,-2 z"
     class="cls-4" />
  <path
     id="path130"
     d="m 22.323648,24.495973 h -1 a 1,1 0 0 0 0,2 h 1 a 1,1 0 0 0 0,-2 z"
     class="cls-4" />
  <path
     id="path132"
     d="m 22.323648,32.495973 h -1 a 1,1 0 0 0 0,2 h 1 a 1,1 0 0 0 0,-2 z"
     class="cls-4" />
  <path
     id="path134"
     d="m 22.323648,40.495973 h -1 a 1,1 0 0 0 0,2 h 1 a 1,1 0 0 0 0,-2 z"
     class="cls-4" />
  <path
     id="path136"
     d="m 28.823648,18.495973 h 14 a 1,1 0 0 0 0,-2 h -14 a 1,1 0 0 0 0,2 z"
     class="cls-4" />
  <path
     id="path138"
     d="m 28.823648,26.495973 h 14 a 1,1 0 0 0 0,-2 h -14 a 1,1 0 0 0 0,2 z"
     class="cls-4" />
  <path
     id="path140"
     d="m 28.823648,34.495973 h 14 a 1,1 0 0 0 0,-2 h -14 a 1,1 0 0 0 0,2 z"
     class="cls-4" />
  <path
     id="path142"
     d="m 28.823648,42.495973 h 14 a 1,1 0 0 0 0,-2 h -14 a 1,1 0 0 0 0,2 z"
     class="cls-4" />
</svg>
