<?xml version="1.0" encoding="UTF-8"?>
<svg xmlns="http://www.w3.org/2000/svg" xmlns:xlink="http://www.w3.org/1999/xlink" width="32pt" height="32pt" viewBox="0 0 32 32" version="1.1">
<g id="surface1">
<path style=" stroke:none;fill-rule:nonzero;fill:rgb(0%,0%,0%);fill-opacity:1;" d="M 6 1.5 L 26 1.5 C 26.550781 1.5 27 1.949219 27 2.5 L 27 29.5 C 27 30.050781 26.550781 30.5 26 30.5 L 6 30.5 C 5.449219 30.5 5 30.050781 5 29.5 L 5 2.5 C 5 1.949219 5.449219 1.5 6 1.5 Z M 6 1.5 "/>
<path style=" stroke:none;fill-rule:nonzero;fill:rgb(0%,0%,0%);fill-opacity:1;" d="M 6 1.5 L 26 1.5 C 26.550781 1.5 27 1.949219 27 2.5 L 27 3 L 5 3 L 5 2.5 C 5 1.949219 5.449219 1.5 6 1.5 Z M 6 1.5 "/>
<path style=" stroke:none;fill-rule:nonzero;fill:rgb(0%,0%,0%);fill-opacity:1;" d="M 25 3.5 L 25 28.5 L 7 28.5 L 7 3.5 Z M 25 3.5 "/>
<path style=" stroke:none;fill-rule:nonzero;fill:rgb(0%,0%,0%);fill-opacity:1;" d="M 26 1 L 6 1 C 5.171875 1 4.5 1.671875 4.5 2.5 L 4.5 29.5 C 4.5 30.328125 5.171875 31 6 31 L 26 31 C 26.828125 31 27.5 30.328125 27.5 29.5 L 27.5 2.5 C 27.5 1.671875 26.828125 1 26 1 Z M 19.5 2 L 19.5 3 L 12.5 3 L 12.5 2 Z M 12.5 6 L 19.5 6 C 20.050781 6 20.5 5.550781 20.5 5 L 20.5 4 L 24.5 4 L 24.5 28 L 7.5 28 L 7.5 4 L 11.5 4 L 11.5 5 C 11.5 5.550781 11.949219 6 12.5 6 Z M 19.5 5 L 12.5 5 L 12.5 4 L 19.5 4 Z M 26.5 29.5 C 26.5 29.777344 26.277344 30 26 30 L 6 30 C 5.722656 30 5.5 29.777344 5.5 29.5 L 5.5 2.5 C 5.5 2.222656 5.722656 2 6 2 L 11.5 2 L 11.5 3 L 7 3 C 6.722656 3 6.5 3.222656 6.5 3.5 L 6.5 28.5 C 6.5 28.777344 6.722656 29 7 29 L 25 29 C 25.277344 29 25.5 28.777344 25.5 28.5 L 25.5 3.5 C 25.5 3.222656 25.277344 3 25 3 L 20.5 3 L 20.5 2 L 26 2 C 26.277344 2 26.5 2.222656 26.5 2.5 Z M 26.5 29.5 "/>
<path style=" stroke:none;fill-rule:nonzero;fill:rgb(0%,0%,0%);fill-opacity:1;" d="M 11.125 9.5 L 10.625 9.5 C 10.347656 9.5 10.125 9.722656 10.125 10 C 10.125 10.277344 10.347656 10.5 10.625 10.5 L 11.125 10.5 C 11.402344 10.5 11.625 10.277344 11.625 10 C 11.625 9.722656 11.402344 9.5 11.125 9.5 Z M 11.125 9.5 "/>
<path style=" stroke:none;fill-rule:nonzero;fill:rgb(0%,0%,0%);fill-opacity:1;" d="M 11.125 13.5 L 10.625 13.5 C 10.347656 13.5 10.125 13.722656 10.125 14 C 10.125 14.277344 10.347656 14.5 10.625 14.5 L 11.125 14.5 C 11.402344 14.5 11.625 14.277344 11.625 14 C 11.625 13.722656 11.402344 13.5 11.125 13.5 Z M 11.125 13.5 "/>
<path style=" stroke:none;fill-rule:nonzero;fill:rgb(0%,0%,0%);fill-opacity:1;" d="M 11.125 17.5 L 10.625 17.5 C 10.347656 17.5 10.125 17.722656 10.125 18 C 10.125 18.277344 10.347656 18.5 10.625 18.5 L 11.125 18.5 C 11.402344 18.5 11.625 18.277344 11.625 18 C 11.625 17.722656 11.402344 17.5 11.125 17.5 Z M 11.125 17.5 "/>
<path style=" stroke:none;fill-rule:nonzero;fill:rgb(0%,0%,0%);fill-opacity:1;" d="M 11.125 21.5 L 10.625 21.5 C 10.347656 21.5 10.125 21.722656 10.125 22 C 10.125 22.277344 10.347656 22.5 10.625 22.5 L 11.125 22.5 C 11.402344 22.5 11.625 22.277344 11.625 22 C 11.625 21.722656 11.402344 21.5 11.125 21.5 Z M 11.125 21.5 "/>
<path style=" stroke:none;fill-rule:nonzero;fill:rgb(0%,0%,0%);fill-opacity:1;" d="M 14.375 10.5 L 21.375 10.5 C 21.652344 10.5 21.875 10.277344 21.875 10 C 21.875 9.722656 21.652344 9.5 21.375 9.5 L 14.375 9.5 C 14.097656 9.5 13.875 9.722656 13.875 10 C 13.875 10.277344 14.097656 10.5 14.375 10.5 Z M 14.375 10.5 "/>
<path style=" stroke:none;fill-rule:nonzero;fill:rgb(0%,0%,0%);fill-opacity:1;" d="M 14.375 14.5 L 21.375 14.5 C 21.652344 14.5 21.875 14.277344 21.875 14 C 21.875 13.722656 21.652344 13.5 21.375 13.5 L 14.375 13.5 C 14.097656 13.5 13.875 13.722656 13.875 14 C 13.875 14.277344 14.097656 14.5 14.375 14.5 Z M 14.375 14.5 "/>
<path style=" stroke:none;fill-rule:nonzero;fill:rgb(0%,0%,0%);fill-opacity:1;" d="M 14.375 18.5 L 21.375 18.5 C 21.652344 18.5 21.875 18.277344 21.875 18 C 21.875 17.722656 21.652344 17.5 21.375 17.5 L 14.375 17.5 C 14.097656 17.5 13.875 17.722656 13.875 18 C 13.875 18.277344 14.097656 18.5 14.375 18.5 Z M 14.375 18.5 "/>
<path style=" stroke:none;fill-rule:nonzero;fill:rgb(0%,0%,0%);fill-opacity:1;" d="M 14.375 22.5 L 21.375 22.5 C 21.652344 22.5 21.875 22.277344 21.875 22 C 21.875 21.722656 21.652344 21.5 21.375 21.5 L 14.375 21.5 C 14.097656 21.5 13.875 21.722656 13.875 22 C 13.875 22.277344 14.097656 22.5 14.375 22.5 Z M 14.375 22.5 "/>
</g>
</svg>
