<?xml version="1.0" ?><svg id="Layer_1_1_" style="enable-background:new 0 0 64 64;" version="1.1" viewBox="0 0 64 64" xml:space="preserve" xmlns="http://www.w3.org/2000/svg" xmlns:xlink="http://www.w3.org/1999/xlink"><g><path d="M62,1H2C1.447,1,1,1.448,1,2v48c0,0.552,0.447,1,1,1h11c0.553,0,1-0.448,1-1s-0.447-1-1-1H3V11h58v38h-7V19   c0-3.309-2.691-6-6-6s-6,2.691-6,6v30h-5c-0.553,0-1,0.448-1,1s0.447,1,1,1h5v3c0,0.119,0.028,0.234,0.07,0.344   c0.012,0.033,0.026,0.062,0.042,0.093c0.015,0.03,0.023,0.063,0.041,0.092l5,8C47.335,62.822,47.655,63,48,63   s0.665-0.178,0.848-0.47l5-8c0.018-0.029,0.026-0.062,0.041-0.092c0.015-0.031,0.03-0.061,0.042-0.094   C53.972,54.234,54,54.119,54,54v-3h8c0.553,0,1-0.448,1-1V2C63,1.448,62.553,1,62,1z M49,53V28h3v25H49z M44,53V28h3v25H44z M52,26   h-8v-2h8V26z M48,15c2.206,0,4,1.794,4,4v3h-8v-3C44,16.794,45.794,15,48,15z M48,60.113L44.804,55h6.392L48,60.113z M3,9V3h58v6H3   z"/><g><path d="M38,34H10c-0.553,0-1-0.447-1-1V17c0-0.553,0.447-1,1-1h28c0.553,0,1,0.447,1,1v16    C39,33.553,38.553,34,38,34z" style="fill:#00F4CB;"/></g><g><circle cx="7" cy="6" r="1"/></g><g><circle cx="11" cy="6" r="1"/></g><g><circle cx="15" cy="6" r="1"/></g><g><circle cx="17" cy="29" r="1"/></g><g><circle cx="24" cy="29" r="1"/></g><g><circle cx="31" cy="29" r="1"/></g><g><path d="M34,22H14c-0.553,0-1-0.448-1-1s0.447-1,1-1h20c0.553,0,1,0.448,1,1S34.553,22,34,22z"/></g><g><path d="M34,26H14c-0.553,0-1-0.448-1-1s0.447-1,1-1h20c0.553,0,1,0.448,1,1S34.553,26,34,26z"/></g><g><path d="M37.258,46.634l-1.973-0.525c-0.079-0.21-0.167-0.419-0.262-0.627l1.024-1.769    c0.228-0.392,0.162-0.888-0.158-1.208l-3.395-3.395c-0.32-0.32-0.817-0.386-1.208-0.158l-1.769,1.024    c-0.208-0.095-0.417-0.183-0.627-0.262l-0.525-1.973C28.25,37.305,27.854,37,27.4,37H22.6c-0.453,0-0.85,0.305-0.966,0.742    l-0.525,1.973c-0.21,0.079-0.419,0.167-0.627,0.262l-1.769-1.024c-0.392-0.228-0.888-0.162-1.208,0.158l-3.395,3.395    c-0.32,0.32-0.386,0.816-0.158,1.208l1.024,1.769c-0.095,0.208-0.183,0.417-0.262,0.627l-1.973,0.525    C12.305,46.75,12,47.146,12,47.6V52.4c0,0.453,0.305,0.85,0.742,0.966l1.973,0.525c0.079,0.21,0.167,0.419,0.262,0.627    l-1.024,1.769c-0.228,0.392-0.162,0.888,0.158,1.208l3.395,3.395c0.32,0.32,0.816,0.386,1.208,0.158l1.769-1.024    c0.208,0.095,0.417,0.183,0.627,0.262l0.525,1.973C21.75,62.695,22.146,63,22.6,63H27.4c0.453,0,0.85-0.305,0.966-0.742    l0.525-1.973c0.21-0.079,0.419-0.167,0.627-0.262l1.769,1.024c0.391,0.228,0.888,0.162,1.208-0.158l3.395-3.395    c0.32-0.32,0.386-0.816,0.158-1.208l-1.024-1.769c0.095-0.208,0.183-0.417,0.262-0.627l1.973-0.525    C37.695,53.25,38,52.854,38,52.4V47.6C38,47.146,37.695,46.75,37.258,46.634z M25,56c-3.314,0-6-2.686-6-6s2.686-6,6-6    s6,2.686,6,6S28.314,56,25,56z" style="fill:#00F4CB;"/></g><g><path d="M25,57c-3.859,0-7-3.14-7-7s3.141-7,7-7s7,3.14,7,7S28.859,57,25,57z M25,45c-2.757,0-5,2.243-5,5s2.243,5,5,5    s5-2.243,5-5S27.757,45,25,45z"/></g></g></svg>